<?xml version="1.0" encoding="utf-8"?>
<!-- Generator: Adobe Illustrator 25.2.1, SVG Export Plug-In . SVG Version: 6.00 Build 0)  -->
<svg version="1.1" id="Layer_1" xmlns="http://www.w3.org/2000/svg" xmlns:xlink="http://www.w3.org/1999/xlink" x="0px" y="0px"
	 viewBox="0 0 22 22" style="enable-background:new 0 0 22 22;" xml:space="preserve">
<style type="text/css">
	.st0{fill-rule:evenodd;clip-rule:evenodd;fill:#81E6F4;}
</style>
<path class="st0" d="M0,1.8c0-0.5,0.2-1,0.5-1.3S1.4,0,1.8,0h18.3c0.2,0,0.5,0,0.7,0.1s0.4,0.2,0.6,0.4s0.3,0.4,0.4,0.6
	C22,1.4,22,1.6,22,1.8v18.3c0,0.2,0,0.5-0.1,0.7s-0.2,0.4-0.4,0.6c-0.2,0.2-0.4,0.3-0.6,0.4C20.6,22,20.4,22,20.2,22H1.8
	c-0.5,0-1-0.2-1.3-0.5C0.2,21.1,0,20.6,0,20.2V1.8z M8.7,8.4h3v1.5c0.4-0.9,1.5-1.6,3.2-1.6c3.2,0,3.9,1.7,3.9,4.9V19h-3.2v-5.1
	c0-1.8-0.4-2.8-1.5-2.8c-1.5,0-2.1,1.1-2.1,2.8V19H8.7V8.4z M3.2,18.8h3.2V8.2H3.2V18.8z M6.9,4.8c0,0.3-0.1,0.5-0.2,0.8
	C6.6,5.9,6.5,6.1,6.3,6.3C6.1,6.5,5.9,6.6,5.6,6.7C5.4,6.8,5.1,6.9,4.8,6.9C4.5,6.9,4.3,6.8,4,6.7C3.8,6.6,3.5,6.5,3.4,6.3
	C3.2,6.1,3,5.9,2.9,5.6C2.8,5.4,2.7,5.1,2.7,4.8c0-0.5,0.2-1.1,0.6-1.5c0.4-0.3,1-0.6,1.5-0.6s1.1,0.2,1.5,0.6
	C6.7,3.7,6.9,4.3,6.9,4.8z"/>
</svg>
