<?xml version="1.0" encoding="utf-8"?>
<!-- Generator: Adobe Illustrator 25.2.1, SVG Export Plug-In . SVG Version: 6.00 Build 0)  -->
<svg version="1.1" id="Layer_1" focusable="false" xmlns="http://www.w3.org/2000/svg" xmlns:xlink="http://www.w3.org/1999/xlink"
	 x="0px" y="0px" viewBox="0 0 10.6 12" style="enable-background:new 0 0 10.6 12;" xml:space="preserve">
<style type="text/css">
	.st0{fill:#ACB2A3;}
</style>
<path class="st0" d="M0,0l1,10.8L5.3,12l4.3-1.2l1-10.8H0L0,0z M8.8,10.1l-3.5,1v0l0,0l0,0v0l-3.5-1L1,0.9h8.6
	C9.6,0.9,8.8,10.1,8.8,10.1z M6.9,6.2L6.8,7.9L5.3,8.3L3.8,7.9L3.7,6.9H2.4L2.6,9l2.7,0.8L8,9l0.4-4.1H3.5L3.4,3.5h5.1l0.1-1.3H2
	l0.4,4H6.9z"/>
</svg>
