<?xml version="1.0" encoding="utf-8"?>
<!-- Generator: Adobe Illustrator 25.2.1, SVG Export Plug-In . SVG Version: 6.00 Build 0)  -->
<svg version="1.1" id="Layer_1" xmlns="http://www.w3.org/2000/svg" xmlns:xlink="http://www.w3.org/1999/xlink" x="0px" y="0px"
	 viewBox="0 0 22 22" style="enable-background:new 0 0 22 22;" xml:space="preserve">
<style type="text/css">
	.st0{fill:#81E6F4;}
</style>
<path class="st0" d="M19.5,0H2.4C1.1,0,0,1.1,0,2.4v17.3C0,20.9,1.1,22,2.4,22h17.2c1.3,0,2.4-1.1,2.4-2.4V2.4
	C21.9,1.1,20.8,0,19.5,0z M6.9,14.2H4.6c-0.3,0-0.4-0.3-0.3-0.5l2.4-4.3l0,0L5.2,6.7C5,6.5,5.2,6.2,5.5,6.2h2.3
	c0.3,0,0.5,0.1,0.6,0.4L10,9.4C9.9,9.5,9.1,11,7.5,13.7C7.3,14,7.1,14.2,6.9,14.2L6.9,14.2z M17.6,3.6l-5,8.9l0,0l3.2,5.8
	c0.1,0.3,0,0.5-0.3,0.5h-2.3c-0.3,0-0.5-0.1-0.6-0.4l-3.2-5.9c0.1-0.2,1.8-3.2,5.1-9c0.2-0.3,0.4-0.4,0.6-0.4h2.3
	C17.6,3.1,17.7,3.4,17.6,3.6L17.6,3.6z"/>
</svg>
