<?xml version="1.0" encoding="utf-8"?>
<!-- Generator: Adobe Illustrator 25.2.1, SVG Export Plug-In . SVG Version: 6.00 Build 0)  -->
<svg version="1.1" id="Layer_1" focusable="false" xmlns="http://www.w3.org/2000/svg" xmlns:xlink="http://www.w3.org/1999/xlink"
	 x="0px" y="0px" viewBox="0 0 11.1 11" style="enable-background:new 0 0 11.1 11;" xml:space="preserve">
<style type="text/css">
	.st0{fill:#ACB2A3;}
</style>
<path class="st0" d="M2.3,5.5v3.2h3.2L4.9,8H3V6.1L2.3,5.5z"/>
<path class="st0" d="M11,10.4l-1-1v0.9H0.7V9h0.7V8.4H0.7V6.2h0.7V5.7H0.7V3.5h0.7V3H0.7V1.1L6,6.4V5.5L0.6,0.1C0.4,0,0.2,0,0.1,0.1
	C0,0.2,0,0.2,0,0.3v10.3C0,10.9,0.1,11,0.3,11h10.4c0.2,0,0.3-0.1,0.3-0.3C11.1,10.6,11,10.5,11,10.4z"/>
<path class="st0" d="M7.3,9.7h1.3C9,9.7,9.3,9.4,9.3,9V2.6L8.6,1.2C8.4,0.9,8.2,0.8,8,0.8C7.7,0.8,7.5,1,7.4,1.2L6.7,2.6V9
	C6.7,9.4,7,9.7,7.3,9.7z M7.3,2.7L8,1.5l0.7,1.3v4.9H7.3V2.7z M7.3,8.2h1.3V9H7.3V8.2z"/>
</svg>
