<?xml version="1.0" encoding="utf-8"?>
<!-- Generator: Adobe Illustrator 25.2.1, SVG Export Plug-In . SVG Version: 6.00 Build 0)  -->
<svg version="1.1" id="Layer_1" xmlns="http://www.w3.org/2000/svg" xmlns:xlink="http://www.w3.org/1999/xlink" x="0px" y="0px"
	 viewBox="0 0 22 22" style="enable-background:new 0 0 22 22;" xml:space="preserve">
<style type="text/css">
	.st0{fill:none;}
	.st1{fill:#81E6F4;}
</style>
<g>
	<path class="st0" d="M-1-1h24v24H-1V-1z"/>
</g>
<g>
	<path class="st0" d="M17.8-1.3h23c0.3,0,0.5,0.2,0.5,0.5v23c0,0.3-0.2,0.5-0.5,0.5h-23c-0.3,0-0.5-0.2-0.5-0.5v-23
		C17.3-1,17.5-1.3,17.8-1.3z"/>
	<path class="st1" d="M2.4,0h17.2C20.9,0,22,1.1,22,2.4v17.2c0,1.3-1.1,2.4-2.4,2.4H2.4C1.1,22,0,20.9,0,19.6V2.4C0,1.1,1.1,0,2.4,0
		z M11.1,10.6L5,4.9C4.5,4.4,3.6,4.5,3.2,5.1l0,0C2.9,5.6,3,6.2,3.4,6.6l7,6.6c0.5,0.4,1.2,0.4,1.6,0l6.8-6.6
		c0.4-0.4,0.5-1.1,0.1-1.6L18.8,5c-0.4-0.5-1.2-0.6-1.7-0.1L11.1,10.6L11.1,10.6z"/>
</g>
</svg>
